<?xml version="1.0" standalone="no"?>
<!DOCTYPE svg PUBLIC "-//W3C//DTD SVG 20010904//EN"
 "http://www.w3.org/TR/2001/REC-SVG-20010904/DTD/svg10.dtd">
<svg version="1.0" xmlns="http://www.w3.org/2000/svg"
 width="1282.000000pt" height="220.000000pt" viewBox="0 0 1282.000000 220.000000"
 preserveAspectRatio="xMidYMid meet">

<g transform="translate(0.000000,220.000000) scale(0.100000,-0.100000)"
fill="#000000" stroke="none">
<path d="M5885 2171 c-83 -12 -129 -29 -193 -70 -138 -90 -214 -249 -229 -481
-6 -101 12 -191 56 -278 59 -117 117 -174 345 -340 47 -35 104 -87 126 -116
51 -67 76 -157 60 -215 -35 -130 -165 -157 -346 -72 -48 23 -109 55 -135 71
-82 53 -79 62 -79 -205 l0 -236 25 -23 c29 -27 146 -86 220 -111 74 -25 253
-31 338 -11 215 50 349 214 396 480 22 119 6 281 -36 390 -44 113 -161 246
-368 420 -49 42 -105 95 -122 117 -80 101 -42 222 77 248 65 14 117 3 229 -50
64 -30 87 -36 93 -27 12 20 10 383 -3 412 -29 63 -297 120 -454 97z"/>
<path d="M684 2121 c-305 -49 -523 -297 -604 -686 -73 -347 -35 -746 96 -1008
82 -164 185 -272 319 -337 218 -105 494 -90 684 39 252 171 393 546 378 1001
-7 189 -27 310 -76 456 -52 155 -109 252 -206 350 -86 86 -177 140 -285 169
-67 18 -237 27 -306 16z m210 -432 c69 -42 138 -170 171 -319 25 -113 31 -399
11 -527 -43 -283 -156 -434 -304 -407 -94 17 -159 95 -210 254 -37 112 -47
197 -47 385 1 203 16 307 67 437 66 172 197 247 312 177z"/>
<path d="M1842 2068 c-16 -16 -17 -1331 -2 -1458 39 -316 167 -490 410 -556
91 -25 310 -25 400 -1 91 25 160 60 220 114 66 59 102 113 139 205 64 162 65
170 69 961 2 543 0 722 -9 733 -15 19 -408 21 -427 2 -9 -9 -12 -169 -12 -658
0 -356 -5 -687 -10 -739 -16 -153 -53 -202 -157 -208 -69 -5 -118 17 -145 62
-34 60 -38 147 -38 845 0 520 -3 689 -12 698 -17 17 -409 17 -426 0z"/>
<path d="M3363 2069 c-18 -18 -19 -1949 -1 -1967 18 -18 382 -17 397 1 7 9 12
124 13 358 l3 344 28 -60 c51 -107 114 -258 182 -436 43 -110 76 -182 92 -196
23 -22 31 -23 207 -23 151 0 186 3 196 15 10 12 -7 57 -98 258 -145 319 -234
535 -236 571 -1 26 6 34 44 55 111 61 212 202 245 342 19 82 19 226 -1 309
-47 204 -167 336 -367 408 -71 26 -78 26 -382 30 -241 3 -313 0 -322 -9z m535
-374 c106 -32 172 -124 172 -242 0 -144 -99 -260 -224 -265 -77 -2 -76 -6 -76
254 0 139 4 237 10 249 13 23 48 25 118 4z"/>
<path d="M6762 2068 c-18 -18 -17 -382 1 -396 8 -7 68 -13 143 -14 l129 -3 7
-210 c4 -115 4 -460 1 -765 -6 -517 -5 -557 11 -573 15 -15 42 -17 215 -17
140 0 200 3 209 12 9 9 12 194 12 773 0 579 3 764 12 773 8 8 52 12 133 12
164 0 155 -12 155 212 0 157 -2 177 -18 191 -17 15 -67 17 -508 17 -368 0
-493 -3 -502 -12z"/>
<path d="M8073 2069 c-18 -18 -19 -1949 -1 -1967 17 -17 379 -17 396 0 9 9 12
103 12 357 l1 346 21 -39 c31 -60 112 -252 190 -451 45 -116 79 -188 95 -203
24 -22 29 -22 211 -20 178 3 187 4 190 23 1 11 -43 118 -98 238 -55 119 -100
220 -100 224 0 4 -31 82 -70 174 -38 92 -70 176 -70 188 0 15 18 32 63 60 151
96 240 275 240 486 0 172 -56 324 -158 428 -67 67 -115 97 -216 134 -73 27
-77 27 -384 31 -241 2 -313 0 -322 -9z m533 -374 c106 -31 174 -127 174 -244
-1 -98 -56 -198 -132 -237 -50 -26 -120 -35 -145 -18 -23 14 -23 17 -23 252 0
172 3 241 12 250 16 16 54 15 114 -3z"/>
<path d="M9483 2063 c-17 -17 -18 -76 -17 -975 0 -914 1 -958 19 -978 18 -19
29 -20 421 -20 353 0 405 2 418 16 13 13 16 45 16 194 0 132 -3 181 -12 187
-7 4 -103 10 -213 13 l-200 5 0 185 0 185 179 3 c112 1 185 7 193 13 19 16 19
372 0 388 -8 6 -81 12 -193 13 l-179 3 0 185 0 185 200 5 c110 3 206 9 213 13
9 6 12 56 12 192 0 172 -1 185 -19 195 -13 6 -163 10 -420 10 -369 0 -402 -1
-418 -17z"/>
<path d="M10635 2066 c-19 -13 -19 -43 -20 -977 0 -905 1 -965 18 -982 16 -16
50 -17 421 -17 354 0 407 2 420 16 13 13 16 45 16 194 0 132 -3 181 -12 187
-7 4 -103 10 -213 13 l-200 5 0 185 0 185 179 3 c112 1 185 7 193 13 19 16 19
372 0 388 -8 6 -81 12 -193 13 l-179 3 0 185 0 185 203 5 c165 4 205 8 212 20
5 8 10 92 10 187 0 143 -3 174 -16 187 -13 14 -65 16 -418 16 -327 0 -406 -3
-421 -14z"/>
<path d="M11772 2068 c-18 -18 -17 -382 1 -396 8 -7 68 -13 143 -14 l129 -3 8
-130 c5 -71 6 -416 3 -767 -4 -598 -4 -637 13 -652 26 -24 402 -24 422 0 11
13 13 151 11 737 -1 397 2 742 6 767 l7 45 133 5 c103 4 135 8 142 20 5 8 10
95 10 192 0 147 -3 179 -16 192 -14 14 -74 16 -508 16 -369 0 -495 -3 -504
-12z"/>
</g>
</svg>
