<?xml version="1.0" standalone="no"?>
<!DOCTYPE svg PUBLIC "-//W3C//DTD SVG 20010904//EN"
 "http://www.w3.org/TR/2001/REC-SVG-20010904/DTD/svg10.dtd">
<svg version="1.0" xmlns="http://www.w3.org/2000/svg"
 width="1152.000000pt" height="132.000000pt" viewBox="0 0 1152.000000 132.000000"
 preserveAspectRatio="xMidYMid meet">

<g transform="translate(0.000000,132.000000) scale(0.100000,-0.100000)"
fill="#73C0F9" stroke="none">
<path d="M3700 1311 c-135 -45 -251 -162 -314 -316 -74 -182 -75 -439 -3 -637
85 -235 246 -341 474 -310 43 5 90 15 106 21 l27 11 0 121 0 122 -68 -6 c-38
-4 -84 -2 -106 4 -56 15 -131 90 -168 167 -81 171 -27 421 112 517 40 28 50
30 134 30 l91 0 3 121 3 122 -43 17 c-48 19 -208 30 -248 16z"/>
<path d="M4490 1304 c-75 -20 -129 -54 -185 -116 -104 -115 -155 -283 -155
-508 0 -288 99 -509 263 -590 163 -80 343 -58 466 56 137 126 206 370 181 637
-22 231 -108 402 -241 480 -92 54 -221 70 -329 41z m190 -275 c39 -40 54 -70
75 -149 51 -196 16 -458 -71 -546 -63 -62 -146 -38 -195 57 -68 133 -68 445 0
578 48 93 131 119 191 60z"/>
<path d="M405 1297 c-153 -51 -253 -169 -305 -362 -34 -121 -39 -337 -11 -469
39 -192 130 -330 258 -392 54 -27 67 -29 178 -29 116 0 123 1 186 32 79 39
145 107 188 191 114 225 113 599 -2 817 -44 84 -131 167 -204 196 -72 27 -226
36 -288 16z m185 -265 c102 -72 142 -398 74 -606 -34 -101 -116 -156 -182
-122 -80 41 -123 170 -123 372 0 279 106 443 231 356z"/>
<path d="M1153 1283 c-20 -7 -18 -834 2 -937 34 -181 114 -267 276 -296 73
-14 171 -7 241 16 60 20 140 91 169 151 49 101 52 130 56 603 4 416 4 445 -13
457 -24 18 -224 18 -247 1 -15 -12 -17 -58 -19 -453 -3 -393 -5 -443 -20 -471
-19 -35 -35 -44 -79 -44 -44 0 -69 17 -86 58 -13 31 -16 109 -18 471 -2 351
-6 435 -17 442 -14 9 -224 11 -245 2z"/>
<path d="M2071 1276 c-8 -9 -10 -176 -9 -602 l3 -589 125 0 125 0 5 204 5 204
42 -99 c23 -54 58 -142 79 -194 20 -52 41 -101 47 -107 15 -20 257 -18 257 1
0 8 -35 92 -78 188 -110 242 -140 320 -124 326 34 11 100 73 129 121 78 130
64 327 -32 439 -45 52 -142 100 -226 112 -103 15 -334 13 -348 -4z m362 -252
c39 -29 57 -67 57 -119 0 -74 -44 -136 -110 -155 -56 -16 -60 -6 -60 158 l0
145 44 -5 c24 -3 55 -14 69 -24z"/>
<path d="M5340 1275 c-7 -9 -25 -154 -46 -382 -18 -203 -42 -453 -54 -558 -11
-104 -20 -205 -20 -222 l0 -33 130 0 c126 0 130 1 134 23 3 12 10 103 16 202
17 263 26 352 33 335 3 -8 24 -130 47 -270 22 -140 43 -263 46 -273 5 -16 17
-17 102 -15 l97 3 47 283 c25 156 48 285 50 288 5 4 25 -248 34 -411 3 -55 7
-115 10 -132 l5 -33 129 0 130 0 0 44 c0 23 -9 126 -20 227 -11 101 -35 350
-54 553 -25 269 -38 371 -47 377 -23 14 -233 11 -253 -4 -13 -9 -23 -40 -32
-98 -48 -283 -87 -496 -94 -508 -10 -18 -20 29 -75 353 -28 160 -48 251 -56
257 -8 5 -66 9 -130 9 -91 0 -119 -3 -129 -15z"/>
<path d="M6520 1275 c-7 -9 -25 -154 -46 -382 -18 -203 -42 -453 -54 -558 -11
-104 -20 -205 -20 -222 l0 -33 130 0 c126 0 130 1 134 23 3 12 10 103 16 202
17 263 26 352 33 335 3 -8 24 -130 47 -270 22 -140 43 -263 46 -273 5 -16 17
-17 102 -15 l97 3 47 283 c25 156 48 285 50 288 5 4 25 -248 34 -411 3 -55 7
-115 10 -132 l5 -33 129 0 130 0 0 44 c0 23 -9 126 -20 227 -11 101 -35 350
-54 553 -25 269 -38 371 -48 377 -22 14 -232 11 -252 -4 -13 -9 -23 -40 -32
-98 -48 -283 -87 -496 -94 -508 -10 -18 -20 29 -75 353 -28 160 -48 251 -56
257 -8 5 -66 9 -130 9 -91 0 -119 -3 -129 -15z"/>
<path d="M7583 1283 c-20 -7 -18 -834 2 -937 34 -181 114 -267 276 -296 73
-14 171 -7 241 16 60 20 140 91 169 151 49 101 52 130 56 603 4 416 4 445 -13
457 -24 18 -224 18 -247 1 -15 -12 -17 -58 -19 -453 -3 -393 -5 -443 -20 -471
-19 -35 -35 -44 -79 -44 -44 0 -69 17 -86 58 -13 31 -16 109 -18 471 -2 351
-6 435 -17 442 -14 9 -224 11 -245 2z"/>
<path d="M8492 1282 c-10 -7 -12 -134 -10 -603 l3 -594 130 0 130 0 5 305 5
305 24 -60 c13 -33 63 -166 113 -294 49 -129 94 -241 100 -248 8 -10 43 -13
147 -11 l136 3 3 590 c2 546 1 591 -15 603 -11 8 -53 12 -118 12 -65 0 -107
-4 -118 -12 -15 -12 -17 -45 -19 -306 l-3 -294 -52 129 c-29 70 -79 200 -113
288 -35 93 -69 167 -81 178 -18 14 -41 17 -138 17 -64 0 -122 -4 -129 -8z"/>
<path d="M9457 1278 c-16 -12 -17 -57 -15 -603 l3 -590 129 -3 c73 -1 132 1
135 7 3 5 6 273 5 596 -1 493 -3 588 -15 596 -22 14 -222 11 -242 -3z"/>
<path d="M9893 1283 c-10 -3 -13 -39 -13 -128 0 -142 -5 -135 100 -135 l68 0
7 -87 c4 -48 6 -255 3 -460 -3 -204 -2 -377 2 -383 4 -7 51 -10 136 -8 l129 3
3 468 2 467 78 0 c47 0 83 5 90 12 8 8 12 50 12 125 0 101 -2 113 -19 123 -20
10 -573 14 -598 3z"/>
<path d="M10683 1283 c-22 -8 -15 -31 53 -182 37 -80 96 -215 130 -300 l64
-153 0 -272 c0 -149 4 -277 8 -284 7 -9 41 -12 138 -10 l129 3 5 285 5 285 54
130 c30 72 83 193 118 270 97 213 98 215 82 226 -19 12 -211 12 -242 0 -20 -8
-33 -36 -83 -180 -32 -94 -61 -167 -65 -163 -3 4 -32 77 -63 162 -33 90 -66
162 -78 173 -17 14 -39 17 -132 16 -61 0 -117 -3 -123 -6z"/>
</g>
</svg>
