<?xml version="1.0" standalone="no"?>
<!DOCTYPE svg PUBLIC "-//W3C//DTD SVG 20010904//EN"
 "http://www.w3.org/TR/2001/REC-SVG-20010904/DTD/svg10.dtd">
<svg version="1.0" xmlns="http://www.w3.org/2000/svg"
 width="1152.000000pt" height="94.000000pt" viewBox="0 0 1152.000000 94.000000"
 preserveAspectRatio="xMidYMid meet">

<g transform="translate(0.000000,94.000000) scale(0.100000,-0.100000)"
fill="#479FF7" stroke="none">
<path d="M4644 901 c-76 -35 -118 -117 -117 -231 0 -83 25 -133 94 -191 122
-103 149 -134 149 -171 0 -75 -64 -90 -163 -39 -33 17 -64 31 -68 31 -11 0
-12 -190 -1 -206 18 -29 99 -59 169 -62 93 -5 134 9 181 64 47 52 67 115 67
204 -1 100 -28 147 -145 260 -55 52 -100 103 -100 113 0 9 9 26 21 38 24 24
70 23 132 -5 l38 -17 -3 98 c-3 98 -3 98 -33 112 -50 24 -173 25 -221 2z"/>
<path d="M8014 901 c-76 -35 -118 -117 -117 -231 0 -83 25 -133 94 -191 122
-103 149 -134 149 -171 0 -75 -64 -90 -163 -39 -33 17 -64 31 -68 31 -11 0
-12 -190 -1 -206 18 -29 99 -59 169 -62 93 -5 134 9 181 64 47 52 67 115 67
204 -1 100 -28 147 -145 260 -55 52 -100 103 -100 113 0 9 9 26 21 38 24 24
70 23 132 -5 l38 -17 -3 98 c-3 98 -3 98 -33 112 -50 24 -173 25 -221 2z"/>
<path d="M46 879 c-3 -13 -4 -204 -3 -424 l2 -400 90 0 90 0 5 140 5 140 48
-120 c71 -174 61 -165 162 -165 61 0 85 3 85 13 0 6 -25 66 -54 132 -30 66
-64 144 -75 172 l-21 53 29 15 c34 17 67 57 87 104 21 51 18 167 -7 221 -27
59 -44 77 -104 108 -45 24 -63 26 -192 30 l-142 4 -5 -23z m267 -175 c15 -14
29 -41 33 -59 10 -57 -40 -125 -93 -125 -22 0 -23 2 -23 105 l0 105 29 0 c17
0 38 -10 54 -26z"/>
<path d="M634 875 c-3 -13 -4 -161 -2 -327 5 -335 11 -371 71 -444 45 -55 96
-74 197 -74 102 0 151 19 199 76 60 74 66 112 66 469 l0 320 -95 0 -95 0 -5
-323 -5 -324 -24 -19 c-29 -24 -53 -24 -82 0 l-24 19 -5 324 -5 323 -92 3
c-92 3 -92 3 -99 -23z"/>
<path d="M1284 888 c-13 -21 -11 -818 2 -829 7 -5 87 -8 185 -7 l174 3 0 85 0
85 -87 3 -88 3 0 74 0 74 78 3 77 3 3 87 3 87 -78 3 -78 3 -3 77 -3 77 88 3
88 3 0 85 0 85 -177 3 c-132 2 -178 -1 -184 -10z"/>
<path d="M2063 888 c-7 -8 -10 -160 -9 -423 l1 -410 100 0 100 0 3 172 2 172
73 3 72 3 3 77 3 77 -78 3 -78 3 -3 77 -3 77 88 3 88 3 0 85 0 85 -176 3
c-133 2 -179 -1 -186 -10z"/>
<path d="M2536 879 c-3 -13 -4 -204 -3 -424 l2 -400 90 0 90 0 5 140 5 140 48
-120 c71 -174 61 -165 162 -165 61 0 85 3 85 13 0 6 -25 66 -54 132 -30 66
-64 144 -75 172 l-21 53 30 15 c35 18 73 67 89 114 18 55 13 160 -10 211 -27
59 -44 77 -104 108 -45 24 -63 26 -192 30 l-142 4 -5 -23z m267 -175 c15 -14
29 -41 33 -59 10 -57 -40 -125 -93 -125 -22 0 -23 2 -23 105 l0 105 29 0 c17
0 38 -10 54 -26z"/>
<path d="M3338 888 c-11 -9 -35 -91 -68 -238 -29 -124 -72 -303 -95 -399 -24
-96 -41 -180 -38 -188 4 -9 30 -13 99 -13 106 0 106 0 119 85 4 28 12 53 18
57 20 13 135 9 143 -4 4 -6 12 -39 18 -72 l11 -61 98 -3 c79 -2 98 0 103 12 3
8 -28 156 -69 328 -41 172 -83 349 -93 393 -25 112 -28 115 -139 115 -58 0
-97 -5 -107 -12z m151 -530 c1 -27 -1 -28 -49 -28 -27 0 -50 2 -50 4 0 11 40
284 46 316 6 28 12 5 30 -115 12 -82 23 -162 23 -177z"/>
<path d="M3857 883 c-3 -10 -4 -200 -3 -423 l1 -405 93 -3 c69 -2 92 0 93 10
1 7 1 97 -1 199 -1 114 2 189 8 193 5 3 41 -78 83 -187 40 -105 77 -198 82
-205 7 -9 37 -12 106 -10 l96 3 0 420 0 420 -90 0 -90 0 -5 -210 -5 -210 -32
75 c-17 41 -52 131 -78 200 -26 69 -52 131 -57 138 -7 8 -41 12 -104 12 -80 0
-93 -2 -97 -17z"/>
<path d="M5381 891 c-13 -8 -15 -72 -16 -408 -1 -219 3 -406 7 -415 8 -16 25
-18 152 -18 94 0 159 5 190 14 104 32 157 105 157 219 0 99 -37 169 -108 202
-34 16 -36 19 -19 29 75 45 96 84 96 179 0 85 -30 143 -91 177 -41 23 -55 25
-199 28 -89 2 -161 -1 -169 -7z m224 -145 c39 -17 55 -42 55 -86 0 -37 -47
-90 -79 -90 -20 0 -21 5 -21 95 0 52 2 95 5 95 3 0 21 -6 40 -14z m33 -355
c31 -17 48 -81 31 -116 -15 -31 -51 -60 -86 -70 -23 -6 -23 -6 -23 104 l0 110
29 -9 c15 -4 38 -13 49 -19z"/>
<path d="M5993 888 c-7 -8 -10 -159 -9 -423 l1 -410 95 0 95 0 0 420 0 420
-86 3 c-61 2 -89 -1 -96 -10z"/>
<path d="M6297 883 c-3 -10 -4 -200 -3 -423 l1 -405 93 -3 c69 -2 92 0 93 10
1 7 1 97 -1 199 -1 114 2 189 8 193 5 3 41 -78 83 -187 40 -105 77 -198 82
-205 7 -9 37 -12 106 -10 l96 3 0 420 0 420 -90 0 -90 0 -5 -210 -5 -210 -32
75 c-17 41 -52 131 -78 200 -26 69 -52 131 -57 138 -7 8 -41 12 -104 12 -80 0
-93 -2 -97 -17z"/>
<path d="M7115 890 c-4 -6 -7 -147 -8 -314 -2 -352 1 -340 -86 -334 l-56 3 -3
-70 c-4 -96 2 -113 45 -132 53 -22 173 -15 209 13 73 54 85 133 82 534 l-3
305 -87 3 c-54 2 -89 -1 -93 -8z"/>
<path d="M7409 893 c-5 -43 -2 -818 3 -826 8 -13 278 -23 335 -12 l33 6 0 84
c0 74 -2 85 -17 86 -10 0 -49 2 -88 2 l-70 2 -3 78 -3 77 81 0 80 0 0 90 0 90
-80 0 -80 0 0 75 0 74 88 3 87 3 0 85 0 85 -182 3 c-101 1 -183 -1 -184 -5z"/>
<path d="M8436 884 c-3 -9 -6 -44 -6 -79 0 -92 2 -95 71 -95 l59 0 2 -327 3
-328 92 -3 93 -3 2 328 3 328 60 5 60 5 3 84 c2 61 -1 87 -10 92 -7 5 -106 9
-219 9 -180 0 -208 -2 -213 -16z"/>
<path d="M8986 879 c-3 -13 -4 -204 -3 -424 l2 -400 90 0 90 0 5 140 5 140 48
-120 c71 -174 61 -165 162 -165 61 0 85 3 85 13 0 6 -25 66 -54 132 -30 66
-64 144 -75 172 l-21 53 30 15 c35 18 73 67 89 114 18 55 13 160 -10 211 -27
59 -44 77 -104 108 -45 24 -63 26 -192 30 l-142 4 -5 -23z m267 -175 c15 -14
29 -41 33 -59 10 -57 -40 -125 -93 -125 -22 0 -23 2 -23 105 l0 105 29 0 c17
0 38 -10 54 -26z"/>
<path d="M9778 888 c-11 -9 -34 -91 -68 -238 -29 -124 -71 -303 -95 -399 -24
-96 -41 -180 -38 -188 4 -9 30 -13 99 -13 106 0 106 0 119 85 4 28 12 53 18
57 20 13 135 9 143 -4 4 -6 12 -39 18 -72 l11 -61 98 -3 c79 -2 98 0 103 12 3
8 -28 156 -69 328 -41 172 -83 349 -93 393 -25 112 -28 115 -139 115 -58 0
-97 -5 -107 -12z m151 -530 c1 -27 -1 -28 -49 -28 -27 0 -50 2 -50 4 0 11 40
284 46 316 6 28 12 5 30 -115 12 -82 23 -162 23 -177z"/>
<path d="M10508 888 c-11 -9 -35 -91 -68 -238 -29 -124 -72 -303 -95 -399 -24
-96 -41 -180 -38 -188 4 -9 30 -13 99 -13 106 0 106 0 119 85 4 28 12 53 18
57 20 13 135 9 143 -4 4 -6 12 -39 18 -72 l11 -61 98 -3 c79 -2 98 0 103 12 3
8 -28 156 -69 328 -41 172 -83 349 -93 393 -25 112 -28 115 -139 115 -58 0
-97 -5 -107 -12z m151 -530 c1 -27 -1 -28 -49 -28 -27 0 -50 2 -50 4 0 11 40
284 46 316 6 28 12 5 30 -115 12 -82 23 -162 23 -177z"/>
<path d="M11026 884 c-3 -9 -6 -44 -6 -79 0 -92 2 -95 71 -95 l59 0 2 -327 3
-328 92 -3 93 -3 2 328 3 328 60 5 60 5 3 84 c2 61 -1 87 -10 92 -7 5 -106 9
-219 9 -180 0 -208 -2 -213 -16z"/>
</g>
</svg>
