<?xml version="1.0" standalone="no"?>
<!DOCTYPE svg PUBLIC "-//W3C//DTD SVG 20010904//EN"
 "http://www.w3.org/TR/2001/REC-SVG-20010904/DTD/svg10.dtd">
<svg version="1.0" xmlns="http://www.w3.org/2000/svg"
 width="1286.000000pt" height="118.000000pt" viewBox="0 0 1286.000000 118.000000"
 preserveAspectRatio="xMidYMid meet">

<g transform="translate(0.000000,118.000000) scale(0.100000,-0.100000)"
fill="#80D552" stroke="none">
<path d="M11838 1166 c-21 -8 -49 -21 -62 -30 -93 -60 -143 -252 -100 -379 20
-59 86 -133 179 -202 84 -62 115 -101 122 -155 5 -34 1 -43 -26 -71 -29 -28
-36 -31 -74 -26 -23 3 -77 24 -119 45 -42 22 -79 38 -82 34 -3 -3 -6 -63 -6
-134 l0 -128 38 -24 c85 -53 220 -72 314 -44 56 17 122 79 154 146 23 48 29
73 32 157 3 85 1 109 -18 160 -20 53 -38 75 -156 191 -147 143 -157 162 -109
209 32 33 83 33 153 0 30 -14 56 -25 58 -25 2 0 4 53 4 119 0 83 -4 122 -12
129 -46 37 -218 54 -290 28z"/>
<path d="M345 1150 c-73 -11 -118 -33 -173 -84 -56 -52 -94 -124 -124 -234
-29 -106 -32 -383 -5 -482 59 -218 169 -325 344 -337 263 -18 413 184 413 560
l0 97 -202 -2 -203 -3 0 -110 0 -110 78 -3 c85 -3 88 -6 66 -73 -44 -132 -166
-154 -223 -40 -45 89 -58 263 -32 413 23 128 78 195 149 181 31 -6 72 -53 82
-95 12 -48 23 -49 144 -11 127 40 125 36 78 132 -48 96 -156 180 -252 196 -75
12 -90 13 -140 5z"/>
<path d="M1254 1151 c-205 -52 -324 -283 -311 -601 6 -142 22 -214 72 -316 44
-90 119 -163 198 -192 70 -27 189 -29 263 -7 111 34 201 138 250 289 35 108
45 317 20 446 -20 107 -78 231 -135 287 -68 67 -138 97 -240 100 -47 1 -100
-2 -117 -6z m165 -253 c113 -115 113 -527 0 -623 -60 -50 -132 -26 -176 58
-41 81 -56 296 -28 415 39 164 127 229 204 150z"/>
<path d="M5044 1151 c-205 -52 -324 -283 -311 -601 6 -142 22 -214 72 -316 44
-90 119 -163 198 -192 70 -27 189 -29 263 -7 111 34 201 138 250 289 35 108
45 317 20 446 -20 107 -78 231 -135 287 -68 67 -138 97 -240 100 -47 1 -100
-2 -117 -6z m165 -253 c113 -115 113 -527 0 -623 -60 -50 -132 -26 -176 58
-41 81 -56 296 -28 415 39 164 127 229 204 150z"/>
<path d="M1913 1119 c-10 -10 -13 -130 -13 -530 0 -439 2 -518 15 -529 10 -8
62 -11 187 -8 165 3 176 4 229 30 103 51 171 136 216 273 25 74 27 93 28 250
0 152 -2 177 -23 240 -44 132 -116 215 -221 257 -48 19 -80 22 -231 26 -133 3
-178 1 -187 -9z m318 -242 c79 -53 114 -150 107 -302 -4 -82 -9 -111 -31 -155
-14 -30 -32 -62 -39 -70 -29 -33 -81 -70 -99 -70 -18 0 -19 11 -19 310 l0 310
24 0 c12 0 38 -10 57 -23z"/>
<path d="M2732 1117 c-7 -8 -10 -176 -9 -537 l2 -525 235 0 235 0 3 99 c2 62
-1 103 -8 110 -7 7 -53 11 -113 11 l-102 0 -3 98 -3 97 93 0 c51 0 99 4 106 8
9 6 12 36 10 113 l-3 104 -102 3 -103 3 0 99 0 100 103 0 c56 0 108 4 115 8 9
6 12 36 10 113 l-3 104 -226 3 c-175 2 -229 -1 -237 -11z"/>
<path d="M3352 1118 c-9 -9 -12 -138 -12 -540 l0 -528 130 0 130 0 2 222 3
223 95 5 95 5 0 95 0 95 -102 3 -103 3 0 99 0 100 103 0 c56 0 108 4 115 8 9
6 12 36 10 113 l-3 104 -225 3 c-167 2 -229 -1 -238 -10z"/>
<path d="M3975 1118 c-3 -7 -4 -249 -3 -538 l3 -525 113 -3 c86 -2 112 0 113
10 0 7 0 88 -1 180 -1 93 1 168 4 168 9 0 36 -58 88 -189 72 -184 58 -171 188
-171 88 0 110 3 110 14 0 8 -18 54 -41 103 -72 156 -139 320 -139 341 0 12 9
23 20 27 36 12 106 101 125 161 39 125 1 283 -88 359 -68 58 -141 75 -328 75
-119 0 -161 -3 -164 -12z m316 -213 c16 -9 39 -30 49 -48 51 -82 -7 -207 -96
-207 l-34 0 0 135 0 135 25 0 c15 0 39 -7 56 -15z"/>
<path d="M5695 1118 c-3 -7 -4 -249 -3 -538 l3 -525 120 0 120 0 0 535 0 535
-118 3 c-88 2 -119 -1 -122 -10z"/>
<path d="M6093 1119 c-10 -10 -13 -130 -13 -530 0 -439 2 -518 15 -529 10 -8
62 -11 187 -8 165 3 176 4 229 30 103 51 171 136 216 273 25 74 27 93 28 250
0 152 -2 177 -23 240 -44 132 -116 215 -221 257 -48 19 -80 22 -231 26 -133 3
-178 1 -187 -9z m318 -242 c79 -53 114 -150 107 -302 -4 -82 -9 -111 -31 -155
-14 -30 -32 -62 -39 -70 -29 -33 -81 -70 -99 -70 -18 0 -19 11 -19 310 l0 310
24 0 c12 0 38 -10 57 -23z"/>
<path d="M7303 1119 c-10 -10 -13 -130 -13 -530 0 -439 2 -518 15 -529 10 -8
62 -11 187 -8 165 3 176 4 229 30 103 51 171 136 216 273 25 74 27 93 28 250
0 152 -2 177 -23 240 -44 132 -116 215 -221 257 -48 19 -80 22 -231 26 -133 3
-178 1 -187 -9z m318 -242 c79 -53 114 -150 107 -302 -4 -82 -9 -111 -31 -155
-14 -30 -32 -62 -39 -70 -29 -33 -81 -70 -99 -70 -18 0 -19 11 -19 310 l0 310
24 0 c12 0 38 -10 57 -23z"/>
<path d="M8122 1117 c-7 -8 -10 -176 -9 -537 l2 -525 235 0 235 0 3 99 c2 62
-1 103 -8 110 -7 7 -53 11 -113 11 l-102 0 -3 98 -3 97 93 0 c51 0 99 4 106 8
9 6 12 36 10 113 l-3 104 -102 3 -103 3 0 99 0 100 103 0 c56 0 108 4 115 8 9
6 12 36 10 113 l-3 104 -226 3 c-175 2 -229 -1 -237 -11z"/>
<path d="M8734 1116 c-3 -8 28 -140 70 -293 41 -153 100 -375 131 -493 31
-118 60 -230 66 -247 l11 -33 118 0 118 0 11 33 c6 17 44 169 86 337 42 168
99 390 126 494 28 103 48 195 45 202 -5 12 -30 14 -128 12 l-123 -3 -51 -250
c-78 -382 -75 -370 -84 -354 -4 8 -33 142 -65 299 -31 157 -62 291 -67 298
-16 19 -257 17 -264 -2z"/>
<path d="M9665 1118 c-3 -7 -4 -249 -3 -538 l3 -525 113 -3 c86 -2 112 0 113
10 0 7 0 88 -1 180 -1 93 1 168 4 168 9 0 36 -58 88 -189 72 -184 58 -171 188
-171 88 0 110 3 110 14 0 8 -18 54 -41 103 -72 156 -139 320 -139 341 0 12 9
23 20 27 36 12 106 101 125 161 39 125 1 283 -88 359 -68 58 -141 75 -328 75
-119 0 -161 -3 -164 -12z m316 -213 c16 -9 39 -30 49 -48 51 -82 -7 -207 -96
-207 l-34 0 0 135 0 135 25 0 c15 0 39 -7 56 -15z"/>
<path d="M10432 1117 c-7 -8 -10 -176 -9 -537 l2 -525 235 0 235 0 3 99 c2 62
-1 103 -8 110 -7 7 -53 11 -113 11 l-102 0 -3 98 -3 97 93 0 c51 0 99 4 106 8
9 6 12 36 10 113 l-3 104 -102 3 -103 3 0 99 0 100 103 0 c56 0 108 4 115 8 9
6 12 36 10 113 l-3 104 -226 3 c-175 2 -229 -1 -237 -11z"/>
<path d="M11052 1117 c-7 -8 -10 -176 -9 -537 l2 -525 235 0 235 0 3 99 c2 62
-1 103 -8 110 -7 7 -53 11 -113 11 l-102 0 -3 98 -3 97 93 0 c51 0 99 4 106 8
9 6 12 36 10 113 l-3 104 -102 3 -103 3 0 99 0 100 103 0 c56 0 108 4 115 8 9
6 12 36 10 113 l-3 104 -226 3 c-175 2 -229 -1 -237 -11z"/>
<path d="M12362 1117 c-7 -8 -10 -176 -9 -537 l2 -525 235 0 235 0 3 99 c2 62
-1 103 -8 110 -7 7 -53 11 -113 11 l-102 0 -3 98 -3 97 93 0 c51 0 99 4 106 8
9 6 12 36 10 113 l-3 104 -102 3 -103 3 0 99 0 100 103 0 c56 0 108 4 115 8 9
6 12 36 10 113 l-3 104 -226 3 c-175 2 -229 -1 -237 -11z"/>
</g>
</svg>
