<?xml version="1.0" standalone="no"?>
<!DOCTYPE svg PUBLIC "-//W3C//DTD SVG 20010904//EN"
 "http://www.w3.org/TR/2001/REC-SVG-20010904/DTD/svg10.dtd">
<svg version="1.0" xmlns="http://www.w3.org/2000/svg"
 width="450.000000pt" height="390.000000pt" viewBox="0 0 450.000000 390.000000"
 preserveAspectRatio="xMidYMid meet">

<g transform="translate(0.000000,390.000000) scale(0.100000,-0.100000)"
fill="#000000" stroke="none">
<path d="M593 2904 l-552 -956 200 -346 c111 -191 359 -620 552 -955 l350
-607 1105 2 1105 3 109 190 c544 940 978 1695 983 1706 2 8 -243 442 -544 964
l-549 950 -1104 2 -1103 3 -552 -956z m2725 386 c81 -140 289 -499 461 -798
l313 -543 -110 -192 c-61 -106 -268 -464 -460 -797 l-350 -605 -924 -3 -923
-2 -462 799 -462 800 440 763 c242 420 452 780 465 801 l24 37 921 -2 920 -3
147 -255z"/>
</g>
</svg>
